<svg xmlns="http://www.w3.org/2000/svg" width="600" height="900" viewBox="0 0 600 900"><path d="M28 95H70V50H115V28H485V50H530V95H572V805H530V850H485V872H115V850H70V805H28Z" fill="none" stroke="#6d5839" stroke-width="25"/><path d="M28 95H70V50H115V28H485V50H530V95H572V805H530V850H485V872H115V850H70V805H28Z" fill="none" stroke="#e2c58a" stroke-width="5"/><path d="M95 110H505M95 790H505M52 150V750M548 150V750" fill="none" stroke="#7e7852" stroke-width="3"/><path d="M268 65L300 42L332 65L300 88Z" fill="#d8b67b"/></svg>