<svg xmlns="http://www.w3.org/2000/svg" width="600" height="600" viewBox="0 0 600 600"><path d="M300 550V55Q345 220 318 530Z" fill="#788650" stroke="#455d35" stroke-width="8"/><path d="M300 535L130 210M300 535L470 180" fill="none" stroke="#c5a367" stroke-width="13" stroke-linecap="round" stroke-linejoin="round"/><ellipse cx="170" cy="240" rx="22" ry="58" transform="rotate(-35 170 240)" fill="#66834b"/><ellipse cx="445" cy="240" rx="18" ry="62" transform="rotate(38 445 240)" fill="#82955f"/><ellipse cx="190" cy="285" rx="22" ry="58" transform="rotate(-35 190 285)" fill="#66834b"/><ellipse cx="423" cy="284" rx="18" ry="62" transform="rotate(38 423 284)" fill="#82955f"/><ellipse cx="210" cy="330" rx="22" ry="58" transform="rotate(-35 210 330)" fill="#66834b"/><ellipse cx="401" cy="328" rx="18" ry="62" transform="rotate(38 401 328)" fill="#82955f"/><ellipse cx="230" cy="375" rx="22" ry="58" transform="rotate(-35 230 375)" fill="#66834b"/><ellipse cx="379" cy="372" rx="18" ry="62" transform="rotate(38 379 372)" fill="#82955f"/><ellipse cx="250" cy="420" rx="22" ry="58" transform="rotate(-35 250 420)" fill="#66834b"/><ellipse cx="357" cy="416" rx="18" ry="62" transform="rotate(38 357 416)" fill="#82955f"/><ellipse cx="270" cy="465" rx="22" ry="58" transform="rotate(-35 270 465)" fill="#66834b"/><ellipse cx="335" cy="460" rx="18" ry="62" transform="rotate(38 335 460)" fill="#82955f"/><path d="M250 430H345M260 455H335" stroke="#d4b97c" stroke-width="16"/></svg>