<svg xmlns="http://www.w3.org/2000/svg" width="600" height="600" viewBox="0 0 600 600"><path d="M300 550V110" fill="none" stroke="#c5a367" stroke-width="13" stroke-linecap="round" stroke-linejoin="round"/><ellipse cx="265" cy="155" rx="28" ry="52" transform="rotate(-35 265 155)" fill="#d2ad62"/><ellipse cx="335" cy="155" rx="28" ry="52" transform="rotate(35 335 155)" fill="#b58e47"/><ellipse cx="265" cy="221" rx="28" ry="52" transform="rotate(-35 265 221)" fill="#d2ad62"/><ellipse cx="335" cy="221" rx="28" ry="52" transform="rotate(35 335 221)" fill="#b58e47"/><ellipse cx="265" cy="287" rx="28" ry="52" transform="rotate(-35 265 287)" fill="#d2ad62"/><ellipse cx="335" cy="287" rx="28" ry="52" transform="rotate(35 335 287)" fill="#b58e47"/><ellipse cx="265" cy="353" rx="28" ry="52" transform="rotate(-35 265 353)" fill="#d2ad62"/><ellipse cx="335" cy="353" rx="28" ry="52" transform="rotate(35 335 353)" fill="#b58e47"/><ellipse cx="265" cy="419" rx="28" ry="52" transform="rotate(-35 265 419)" fill="#d2ad62"/><ellipse cx="335" cy="419" rx="28" ry="52" transform="rotate(35 335 419)" fill="#b58e47"/></svg>